<?xml version="1.0" encoding="UTF-8"?>
<svg id="Layer_1" data-name="Layer 1" xmlns="http://www.w3.org/2000/svg" viewBox="0 0 162 93.08">
  <defs>
    <style>
      .cls-1 {
        fill: #2a3790;
      }

      .cls-1, .cls-2 {
        stroke-width: 0px;
      }

      .cls-2 {
        fill: #66c8cf;
      }
    </style>
  </defs>
  <path class="cls-2" d="M13.84,24.74v26.31c0,1.84.44,3.16,1.33,3.98.88.82,2.37,1.23,4.46,1.23h6.39v11.59h-8.64C5.79,67.85,0,62.22,0,50.96V0h13.85v13.45h12.18v11.29h-12.18Z"/>
  <path class="cls-2" d="M47.76,76.1c0,6.02-1.49,10.36-4.47,13.01s-7.25,3.98-12.81,3.98h-6.09v-11.68h3.93c2.09,0,3.57-.41,4.42-1.23.85-.82,1.28-2.14,1.28-3.98V23.16h13.75v52.94ZM34.84,13.79c-1.61-1.54-2.41-3.45-2.41-5.75s.8-4.2,2.41-5.74C36.45.77,38.49,0,40.98,0s4.42.77,5.99,2.31c1.57,1.54,2.35,3.45,2.35,5.74s-.78,4.21-2.35,5.75c-1.57,1.54-3.57,2.31-5.99,2.31s-4.53-.77-6.14-2.31Z"/>
  <g>
    <rect class="cls-1" x="90.97" y="57.89" width="9.88" height="9.88" rx="2.54" ry="2.54"/>
    <rect class="cls-1" x="90.98" y="46.32" width="9.88" height="9.88" rx="2.54" ry="2.54"/>
    <rect class="cls-1" x="90.98" y="11.58" width="9.88" height="9.88" rx="2.54" ry="2.54"/>
    <rect class="cls-1" x="90.98" y="0" width="9.88" height="9.88" rx="2.54" ry="2.54"/>
    <rect class="cls-1" x="90.89" y="34.74" width="9.88" height="9.88" rx="2.54" ry="2.54"/>
    <rect class="cls-1" x="127.6" y="34.74" width="9.88" height="9.88" rx="2.54" ry="2.54"/>
    <rect class="cls-1" x="108.19" y="34.74" width="9.88" height="9.88" rx="2.54" ry="2.54"/>
    <rect class="cls-1" x="152.12" y="34.74" width="9.88" height="9.88" rx="2.54" ry="2.54"/>
    <path class="cls-1" d="M93.43,23.16h4.8c1.4,0,2.54,1.14,2.54,2.54v4.8c0,1.4-1.14,2.54-2.54,2.54h-4.8c-1.4,0-2.54-1.14-2.54-2.54v-4.8c0-1.4,1.14-2.54,2.54-2.54Z"/>
    <rect class="cls-1" x="79.31" y="57.89" width="9.88" height="9.88" rx="2.54" ry="2.54"/>
    <rect class="cls-1" x="79.31" y="46.32" width="9.88" height="9.88" rx="2.54" ry="2.54"/>
    <rect class="cls-1" x="79.31" y="34.74" width="9.88" height="9.88" rx="2.54" ry="2.54"/>
    <path class="cls-1" d="M81.85,23.16h4.8c1.4,0,2.54,1.14,2.54,2.54v4.8c0,1.4-1.14,2.54-2.54,2.54h-4.8c-1.4,0-2.54-1.14-2.54-2.54v-4.8c0-1.4,1.14-2.54,2.54-2.54Z"/>
    <path class="cls-1" d="M81.85,11.58h4.8c1.4,0,2.54,1.14,2.54,2.54v4.8c0,1.4-1.14,2.54-2.54,2.54h-4.8c-1.4,0-2.54-1.14-2.54-2.54v-4.8c0-1.4,1.14-2.54,2.54-2.54Z"/>
    <rect class="cls-1" x="79.31" y="0" width="9.88" height="9.88" rx="2.54" ry="2.54"/>
    <rect class="cls-1" x="67.68" y="34.74" width="9.88" height="9.88" rx="2.54" ry="2.54"/>
    <rect class="cls-1" x="56.1" y="34.74" width="9.88" height="9.88" rx="2.54" ry="2.54"/>
    <path class="cls-1" d="M58.64,23.16h4.8c1.4,0,2.54,1.14,2.54,2.54v4.8c0,1.4-1.14,2.54-2.54,2.54h-4.8c-1.4,0-2.54-1.14-2.54-2.54v-4.8c0-1.4,1.14-2.54,2.54-2.54Z"/>
    <path class="cls-1" d="M70.22,23.16h4.8c1.4,0,2.54,1.14,2.54,2.54v4.8c0,1.4-1.14,2.54-2.54,2.54h-4.8c-1.4,0-2.54-1.14-2.54-2.54v-4.8c0-1.4,1.14-2.54,2.54-2.54Z"/>
    <rect class="cls-1" x="102.47" y="23.16" width="9.88" height="9.88" rx="2.54" ry="2.54"/>
    <rect class="cls-1" x="118.72" y="23.16" width="9.88" height="9.88" rx="2.54" ry="2.54"/>
    <rect class="cls-1" x="138.8" y="23.16" width="9.88" height="9.88" rx="2.54" ry="2.54"/>
  </g>
</svg>