<svg width="468" height="313" viewBox="0 0 468 313" fill="none" xmlns="http://www.w3.org/2000/svg">
<path d="M464.366 237.38H415.16C418.754 222.718 420.66 207.394 420.66 191.626C420.66 160.283 413.129 130.7 399.779 104.58H434.675C436.683 104.58 438.309 102.955 438.309 100.949C438.309 98.9443 436.683 97.3175 434.675 97.3175H395.865C362.93 39.2134 300.504 0 228.913 0C181.295 0 137.734 17.3491 104.206 46.065H45.1597C43.154 46.065 41.5262 47.6918 41.5262 49.6963C41.5262 51.7007 43.154 53.3275 45.1597 53.3275H96.1912C92.1154 57.2347 88.2141 61.3204 84.4954 65.57H3.63354C1.62783 65.57 0 67.1947 0 69.2013C0 71.2078 1.62783 72.8325 3.63354 72.8325H78.4512C52.6012 105.489 37.1659 146.754 37.1659 191.626C37.1659 216.736 42.0016 240.719 50.7886 262.695H41.2147C39.209 262.695 37.5812 264.32 37.5812 266.326C37.5812 268.333 39.209 269.958 41.2147 269.958H53.8678C55.1904 272.902 56.5836 275.809 58.0474 278.673H15.0532C13.0454 278.673 11.4197 280.297 11.4197 282.304C11.4197 284.31 13.0454 285.935 15.0532 285.935H61.9591C66.4398 293.841 71.4665 301.398 76.9895 308.553H380.837C391.158 295.179 399.75 280.403 406.28 264.563H441.942C443.95 264.563 445.576 262.938 445.576 260.931C445.576 258.925 443.95 257.3 441.942 257.3H409.099C410.615 253.146 411.994 248.925 413.225 244.643H464.366C466.374 244.643 468 243.018 468 241.011C468 239.005 466.374 237.38 464.366 237.38Z" fill="#F0F7FF"/>
<path d="M309.495 308.543H286.266C286.266 306.867 287.626 305.508 289.303 305.508H306.46C308.135 305.508 309.495 306.867 309.495 308.543Z" fill="#CEE5FF"/>
<path d="M303.989 305.51H291.766L295.74 192.352L298.408 194.124L303.989 305.51Z" fill="#CEE5FF"/>
<path d="M307.769 308.551H284.539C284.539 306.875 285.899 305.516 287.577 305.516H304.733C306.409 305.516 307.769 306.875 307.769 308.551Z" fill="#CEE5FF"/>
<path d="M296.148 193.359L354.599 227.083L353.959 223.763C353.832 223.107 353.473 222.522 352.946 222.113L314.76 192.574C314.061 192.033 313.145 191.862 312.298 192.116L304.636 194.402C303.914 194.618 303.133 194.527 302.481 194.149L297.39 191.211L296.148 193.359Z" fill="#CEE5FF"/>
<path d="M294.911 191.211L236.461 224.935L239.652 226.041C240.285 226.261 240.979 226.243 241.6 225.987L286.28 207.713C287.102 207.377 287.713 206.665 287.918 205.8L289.764 198.04C289.938 197.303 290.412 196.67 291.068 196.29L296.153 193.356L294.911 191.211Z" fill="#CEE5FF"/>
<path d="M297.393 191.216V123.766L294.837 125.975C294.331 126.413 294.003 127.019 293.913 127.683L287.408 175.495C287.288 176.373 287.599 177.255 288.245 177.863L294.052 183.345C294.603 183.864 294.914 184.586 294.914 185.343V191.216H297.393Z" fill="#CEE5FF"/>
<path d="M301.765 305.517H290.547L294.519 192.359H297.793L301.765 305.517Z" fill="#CEE5FF"/>
<path d="M298.957 193.041C299.321 191.497 298.365 189.95 296.82 189.586C295.276 189.222 293.728 190.177 293.363 191.721C292.999 193.264 293.955 194.811 295.5 195.176C297.044 195.54 298.592 194.584 298.957 193.041Z" fill="#CEE5FF"/>
<path d="M295.956 194.8C297.403 194.8 298.577 193.627 298.577 192.181C298.577 190.735 297.403 189.562 295.956 189.562C294.509 189.562 293.336 190.735 293.336 192.181C293.336 193.627 294.509 194.8 295.956 194.8Z" fill="#CEE5FF"/>
<path d="M237.505 225.286L293.343 192.178L293.293 192.141L236.469 224.927L237.505 225.286Z" fill="#CEE5FF"/>
<path d="M301.764 304.773H290.57V305.509H301.764V304.773Z" fill="#CEE5FF"/>
<path d="M296.57 124.476L297.339 189.815L297.399 189.791V123.758L296.57 124.476Z" fill="#CEE5FF"/>
<path d="M354.4 225.998L297.79 194.227L297.781 194.289L354.606 227.075L354.4 225.998Z" fill="#CEE5FF"/>
<path d="M385.822 308.539H348.633C348.633 305.856 350.809 303.68 353.496 303.68H380.961C383.646 303.68 385.822 305.854 385.822 308.539Z" fill="#8BC0FF"/>
<path d="M377.009 303.68H357.438L363.797 122.516L368.072 125.356L377.009 303.68Z" fill="#8BC0FF"/>
<path d="M383.056 308.539H345.867C345.867 305.856 348.043 303.68 350.73 303.68H378.195C380.878 303.68 383.056 305.854 383.056 308.539Z" fill="#CEE5FF"/>
<path d="M364.469 124.116L458.046 178.109L456.906 172.184C456.779 171.529 456.418 170.942 455.891 170.533L393.597 122.342C392.898 121.8 391.98 121.63 391.133 121.883L377.379 125.99C376.657 126.205 375.876 126.114 375.222 125.736L366.458 120.68L364.469 124.116Z" fill="#CEE5FF"/>
<path d="M362.483 120.68L268.906 174.67L274.61 176.646C275.241 176.864 275.932 176.845 276.551 176.592L350.763 146.239L354.681 129.762L364.47 124.114L362.483 120.68Z" fill="#CEE5FF"/>
<path d="M366.447 120.68V12.6953L361.884 16.642C361.377 17.0798 361.049 17.6878 360.958 18.3497L350.346 96.3552C350.225 97.2329 350.539 98.1148 351.182 98.7248L361.614 108.571C362.164 109.089 362.475 109.814 362.475 110.569V120.68H366.447Z" fill="#CEE5FF"/>
<path d="M373.444 303.68H355.484L361.844 122.516H367.085L373.444 303.68Z" fill="#CEE5FF"/>
<path d="M368.719 124.264C369.691 121.919 368.577 119.23 366.23 118.259C363.883 117.287 361.193 118.401 360.221 120.746C359.249 123.091 360.363 125.78 362.71 126.751C365.057 127.723 367.747 126.609 368.719 124.264Z" fill="#8BC0FF"/>
<path d="M368.027 123.843C368.913 121.705 367.897 119.253 365.757 118.367C363.617 117.481 361.163 118.497 360.277 120.635C359.39 122.774 360.407 125.226 362.547 126.112C364.687 126.998 367.14 125.982 368.027 123.843Z" fill="#CEE5FF"/>
<path d="M270.557 175.245L359.953 122.242L359.874 122.18L268.898 174.67L270.557 175.245Z" fill="#8BC0FF"/>
<path d="M373.444 302.508H355.523V303.684H373.444V302.508Z" fill="#8BC0FF"/>
<path d="M365.117 13.8469L366.349 118.452L366.442 118.414V12.6953L365.117 13.8469Z" fill="#8BC0FF"/>
<path d="M457.704 176.381L367.075 125.516L367.062 125.615L458.036 178.106L457.704 176.381Z" fill="#8BC0FF"/>
<path d="M87.9675 220.836C75.9934 220.836 66.1953 211.044 66.1953 199.077V148.993C66.1953 137.026 75.9934 127.234 87.9675 127.234C99.9416 127.234 109.74 137.026 109.74 148.993V199.077C109.738 211.044 99.9416 220.836 87.9675 220.836Z" fill="#CEE5FF"/>
<path d="M89.1556 308.66H86.7812V162.038C86.7812 161.383 87.3126 160.852 87.9684 160.852C88.6243 160.852 89.1556 161.383 89.1556 162.038V308.66Z" fill="#ADD3FF"/>
<path d="M89.156 181.909L82.5512 170.476C82.2232 169.908 81.4965 169.715 80.9296 170.042C80.3607 170.37 80.1676 171.097 80.4957 171.663L87.1004 183.096L89.156 181.909Z" fill="#ADD3FF"/>
<path d="M88.8368 195.58L95.4415 184.147C95.7696 183.578 95.5744 182.854 95.0076 182.526C94.4387 182.199 93.714 182.394 93.386 182.96L86.7812 194.393L88.8368 195.58Z" fill="#ADD3FF"/>
<path d="M143.56 197.004C128.355 197.004 115.914 184.571 115.914 169.376V105.777C115.914 90.5818 128.355 78.1484 143.56 78.1484C158.765 78.1484 171.206 90.5818 171.206 105.777V169.376C171.206 184.571 158.765 197.004 143.56 197.004Z" fill="#CEE5FF"/>
<path d="M145.064 308.522H142.047V122.335C142.047 121.502 142.722 120.828 143.554 120.828C144.387 120.828 145.062 121.502 145.062 122.335V308.522H145.064Z" fill="#ADD3FF"/>
<path d="M145.067 147.567L136.681 133.05C136.263 132.33 135.341 132.083 134.621 132.498C133.901 132.915 133.653 133.837 134.069 134.557L142.455 149.073L145.067 147.567Z" fill="#ADD3FF"/>
<path d="M144.659 164.934L153.045 150.417C153.462 149.697 153.215 148.774 152.493 148.359C151.772 147.942 150.848 148.189 150.433 148.911L142.047 163.427L144.659 164.934Z" fill="#ADD3FF"/>
<path d="M101.386 300.409C102.654 299.218 103.234 297.857 102.733 296.9C102.115 295.715 100.042 295.533 97.8311 296.367C97.9433 296.078 98.0492 295.782 98.1447 295.477C99.324 291.715 98.6492 288.156 96.6414 287.527C94.6835 286.915 92.1774 289.312 90.9606 292.918C89.9536 288.787 87.3645 285.874 85.1449 286.397C83.0561 286.888 82.0325 290.25 82.7032 294.103C79.6427 292.752 76.6881 292.86 75.7475 294.489C74.7737 296.176 76.2915 298.913 79.1817 300.907C77.8114 301.365 76.8687 302.206 76.74 303.258C76.5822 304.551 77.6909 305.827 79.4517 306.615C79.3541 306.866 79.3271 307.119 79.3852 307.362C79.5679 308.142 80.5583 308.624 81.8498 308.673V308.678H82.0429C82.047 308.678 82.0533 308.678 82.0574 308.678H98.3876V308.663C98.7053 308.622 98.944 308.487 99.025 308.271C99.079 308.128 99.0562 307.964 98.971 307.802C99.8306 307.719 100.478 307.379 100.69 306.812C100.856 306.37 100.732 305.86 100.387 305.36C102.619 305.21 104.336 304.233 104.39 302.974C104.442 301.87 103.192 300.867 101.386 300.409Z" fill="#ADD3FF"/>
<path d="M135.765 293.472C138.099 291.281 139.164 288.779 138.244 287.017C137.106 284.836 133.294 284.502 129.226 286.038C129.434 285.508 129.627 284.963 129.804 284.4C131.971 277.482 130.734 270.938 127.038 269.78C123.436 268.653 118.83 273.063 116.592 279.692C114.738 272.094 109.979 266.738 105.899 267.697C102.058 268.6 100.175 274.783 101.41 281.869C95.7813 279.385 90.3497 279.582 88.6201 282.579C86.8282 285.681 89.6188 290.715 94.9362 294.383C92.4156 295.228 90.6819 296.771 90.4452 298.707C90.1545 301.085 92.1955 303.432 95.4325 304.88C95.2539 305.343 95.2061 305.808 95.31 306.256C95.6484 307.69 97.4652 308.576 99.8446 308.669V308.678H100.2C100.208 308.678 100.218 308.678 100.227 308.678H130.26V308.651C130.846 308.574 131.284 308.327 131.432 307.931C131.531 307.665 131.488 307.366 131.334 307.065C132.914 306.912 134.104 306.287 134.494 305.246C134.799 304.434 134.571 303.494 133.938 302.573C138.045 302.299 141.198 300.5 141.3 298.186C141.387 296.155 139.087 294.313 135.765 293.472Z" fill="#CEE5FF"/>
<path d="M340.234 295.038C338.156 293.086 337.207 290.859 338.025 289.291C339.038 287.349 342.433 287.052 346.054 288.419C345.869 287.948 345.697 287.461 345.541 286.963C343.61 280.802 344.713 274.973 348.004 273.944C351.211 272.94 355.312 276.868 357.305 282.771C358.956 276.007 363.194 271.236 366.827 272.091C370.249 272.896 371.925 278.401 370.824 284.709C375.836 282.497 380.672 282.674 382.215 285.34C383.809 288.102 381.326 292.584 376.59 295.852C378.835 296.603 380.377 297.979 380.589 299.703C380.849 301.821 379.032 303.909 376.15 305.199C376.31 305.61 376.351 306.025 376.258 306.424C375.957 307.702 374.337 308.49 372.222 308.573V308.582H371.906C371.898 308.582 371.889 308.582 371.881 308.582H345.138V308.559C344.617 308.49 344.227 308.27 344.096 307.918C344.007 307.681 344.046 307.416 344.183 307.148C342.775 307.011 341.716 306.455 341.368 305.527C341.098 304.803 341.299 303.967 341.862 303.149C338.205 302.905 335.396 301.305 335.307 299.244C335.228 297.429 337.277 295.789 340.234 295.038Z" fill="#8BC0FF"/>
<path d="M371.152 303.133C370.313 302.345 369.929 301.444 370.259 300.811C370.668 300.027 372.041 299.907 373.503 300.459C373.428 300.268 373.357 300.071 373.295 299.869C372.514 297.379 372.961 295.026 374.29 294.609C375.585 294.205 377.242 295.79 378.048 298.176C378.714 295.443 380.427 293.516 381.895 293.86C383.278 294.186 383.955 296.41 383.51 298.958C385.535 298.064 387.491 298.137 388.111 299.214C388.755 300.33 387.752 302.141 385.84 303.461C386.747 303.764 387.37 304.32 387.455 305.017C387.559 305.872 386.826 306.717 385.661 307.237C385.726 307.403 385.742 307.572 385.705 307.731C385.585 308.248 384.929 308.565 384.073 308.599V308.601H383.946C383.942 308.601 383.94 308.601 383.936 308.601H373.131V308.59C372.921 308.563 372.763 308.474 372.709 308.331C372.674 308.235 372.689 308.128 372.745 308.02C372.176 307.964 371.748 307.74 371.607 307.364C371.497 307.071 371.58 306.733 371.806 306.403C370.328 306.304 369.194 305.658 369.157 304.824C369.13 304.098 369.958 303.436 371.152 303.133Z" fill="#ADD3FF"/>
<path d="M239.455 295.819C237.497 293.978 236.603 291.88 237.375 290.401C238.33 288.571 241.53 288.291 244.943 289.579C244.769 289.135 244.607 288.676 244.459 288.205C242.64 282.4 243.679 276.905 246.781 275.934C249.804 274.988 253.67 278.69 255.549 284.255C257.104 277.878 261.099 273.382 264.525 274.187C267.749 274.944 269.329 280.134 268.293 286.081C273.019 283.995 277.576 284.161 279.03 286.676C280.533 289.278 278.191 293.505 273.729 296.584C275.845 297.294 277.3 298.589 277.498 300.215C277.743 302.211 276.03 304.181 273.312 305.397C273.463 305.785 273.503 306.175 273.413 306.55C273.131 307.754 271.605 308.497 269.608 308.575V308.582H269.311C269.302 308.582 269.296 308.582 269.288 308.582H244.079V308.559C243.587 308.494 243.222 308.287 243.097 307.955C243.014 307.733 243.049 307.482 243.18 307.229C241.854 307.1 240.855 306.575 240.527 305.702C240.271 305.019 240.462 304.233 240.994 303.459C237.547 303.228 234.898 301.72 234.815 299.778C234.736 298.07 236.667 296.524 239.455 295.819Z" fill="#CEE5FF"/>
<path d="M267.804 301.36C266.695 300.319 266.188 299.13 266.624 298.291C267.166 297.254 268.977 297.096 270.912 297.827C270.812 297.576 270.721 297.316 270.638 297.049C269.608 293.76 270.196 290.647 271.952 290.097C273.665 289.562 275.854 291.658 276.919 294.81C277.799 291.197 280.062 288.651 282.004 289.108C283.831 289.537 284.726 292.475 284.138 295.845C286.814 294.664 289.397 294.758 290.22 296.181C291.071 297.656 289.744 300.049 287.217 301.794C288.415 302.194 289.24 302.929 289.352 303.85C289.491 304.981 288.519 306.095 286.981 306.784C287.066 307.004 287.089 307.224 287.039 307.438C286.879 308.121 286.013 308.542 284.884 308.585V308.589H284.715C284.711 308.589 284.707 308.589 284.703 308.589H270.424V308.577C270.146 308.54 269.938 308.423 269.868 308.235C269.82 308.108 269.841 307.967 269.913 307.824C269.162 307.751 268.597 307.454 268.41 306.959C268.265 306.573 268.375 306.126 268.674 305.689C266.722 305.558 265.221 304.703 265.173 303.603C265.13 302.636 266.224 301.761 267.804 301.36Z" fill="#ADD3FF"/>
<path d="M282.159 129.374C281.98 129.374 281.808 129.401 281.648 129.451C281.654 129.366 281.656 129.281 281.656 129.194C281.656 127.206 280.043 125.594 278.054 125.594C276.403 125.594 275.012 126.704 274.586 128.217C274.385 128.16 274.171 128.129 273.951 128.129C272.662 128.129 271.617 129.173 271.617 130.462C271.617 131.75 272.662 132.794 273.951 132.794C273.992 132.794 274.032 132.792 274.073 132.79V132.796H282.161C283.105 132.796 283.872 132.03 283.872 131.086C283.869 130.14 283.103 129.374 282.159 129.374Z" fill="#CEE5FF"/>
<path d="M219.261 90.0553C218.287 90.0553 217.376 90.3251 216.597 90.7899C215.792 87.306 212.669 84.7081 208.938 84.7081C208.61 84.7081 208.286 84.731 207.968 84.7704C206.23 80.8985 202.339 78.2031 197.819 78.2031C191.677 78.2031 186.7 83.1789 186.7 89.3146C186.7 89.381 186.703 89.4453 186.703 89.5117C185.959 89.161 185.129 88.9618 184.252 88.9618C181.084 88.9618 178.516 91.5286 178.516 94.695C178.516 97.8613 181.084 100.426 184.252 100.426H219.261C222.126 100.426 224.45 98.1041 224.45 95.2407C224.45 92.3772 222.126 90.0553 219.261 90.0553Z" fill="#CEE5FF"/>
<path d="M165.906 213.538C166.547 213.538 167.145 213.714 167.658 214.021C168.187 211.731 170.241 210.021 172.697 210.021C172.913 210.021 173.125 210.035 173.335 210.062C174.479 207.516 177.037 205.742 180.012 205.742C184.053 205.742 187.327 209.014 187.327 213.052C187.327 213.096 187.327 213.137 187.325 213.181C187.813 212.951 188.361 212.82 188.936 212.82C191.021 212.82 192.709 214.509 192.709 216.59C192.709 218.673 191.019 220.36 188.936 220.36H165.906C164.02 220.36 162.492 218.833 162.492 216.949C162.492 215.065 164.02 213.538 165.906 213.538Z" fill="#CEE5FF"/>
<path d="M394.969 288.152L394.915 288.359C394.909 288.382 394.767 288.915 394.416 289.577C394.09 290.191 393.517 291.032 392.629 291.557C391.74 292.082 390.725 292.177 390.029 292.165C389.282 292.152 388.746 292.017 388.723 292.011L388.516 291.959L388.57 291.752C388.576 291.729 388.717 291.196 389.068 290.534C389.394 289.92 389.967 289.079 390.856 288.554C391.744 288.029 392.76 287.934 393.455 287.946C394.203 287.959 394.738 288.094 394.761 288.1L394.969 288.152ZM389.049 291.642C389.616 291.741 391.171 291.922 392.415 291.19C393.659 290.455 394.252 289.011 394.439 288.465C393.873 288.365 392.317 288.185 391.074 288.917C389.828 289.652 389.234 291.098 389.049 291.642Z" fill="#ADD3FF"/>
<path d="M391.998 293.121C390.021 293.866 387.82 292.881 387.82 292.881C387.82 292.881 388.823 290.687 390.798 289.942C392.774 289.198 394.975 290.183 394.975 290.183C394.975 290.183 393.974 292.378 391.998 293.121Z" fill="#CEE5FF"/>
<path d="M387.774 264.422L387.772 264.687C387.772 264.717 387.762 265.403 387.54 266.306C387.334 267.144 386.896 268.333 385.983 269.236C385.069 270.138 383.873 270.56 383.03 270.755C382.125 270.964 381.435 270.966 381.406 270.966H381.141L381.143 270.701C381.143 270.672 381.153 269.985 381.375 269.082C381.581 268.244 382.019 267.055 382.932 266.152C383.846 265.25 385.042 264.829 385.885 264.634C386.79 264.424 387.48 264.422 387.509 264.422H387.774ZM381.689 270.425C382.405 270.373 384.334 270.12 385.611 268.86C386.89 267.599 387.168 265.675 387.228 264.961C386.512 265.013 384.583 265.266 383.306 266.526C382.027 267.79 381.749 269.711 381.689 270.425Z" fill="#ADD3FF"/>
<path d="M385.7 271.314C383.543 272.81 380.586 272.287 380.586 272.287C380.586 272.287 381.13 269.339 383.289 267.843C385.447 266.347 388.403 266.87 388.403 266.87C388.403 266.87 387.857 269.818 385.7 271.314Z" fill="#CEE5FF"/>
<path d="M113.711 257.461L113.879 257.604C113.897 257.621 114.331 257.994 114.79 258.619C115.216 259.2 115.741 260.115 115.828 261.181C115.916 262.248 115.546 263.236 115.22 263.879C114.869 264.57 114.502 265.01 114.485 265.028L114.342 265.198L114.174 265.055C114.155 265.039 113.721 264.665 113.262 264.041C112.836 263.46 112.311 262.545 112.224 261.478C112.137 260.412 112.506 259.424 112.832 258.781C113.183 258.09 113.551 257.65 113.567 257.631L113.711 257.461ZM114.29 264.557C114.641 264.074 115.511 262.704 115.388 261.217C115.266 259.725 114.186 258.519 113.762 258.098C113.412 258.581 112.542 259.951 112.664 261.439C112.787 262.933 113.866 264.138 114.29 264.557Z" fill="#ADD3FF"/>
<path d="M117.009 262.479C116.809 264.658 114.895 266.264 114.895 266.264C114.895 266.264 113.302 264.338 113.502 262.16C113.701 259.981 115.615 258.375 115.615 258.375C115.615 258.375 117.206 260.301 117.009 262.479Z" fill="#CEE5FF"/>
<path d="M71.6953 282.627L71.8822 282.614C71.9029 282.612 72.3826 282.583 73.0262 282.691C73.6242 282.791 74.4776 283.034 75.1565 283.623C75.8355 284.212 76.1926 285.026 76.3753 285.602C76.5705 286.223 76.6079 286.704 76.6079 286.725L76.6224 286.91L76.4355 286.922C76.4148 286.924 75.9351 286.953 75.2915 286.845C74.6935 286.746 73.8401 286.503 73.1612 285.914C72.4822 285.324 72.1251 284.511 71.9424 283.934C71.7472 283.314 71.7098 282.832 71.7098 282.812L71.6953 282.627ZM76.2134 286.557C76.1407 286.061 75.8604 284.727 74.9115 283.901C73.9606 283.075 72.6027 282.984 72.1002 282.98C72.1729 283.476 72.4532 284.81 73.402 285.636C74.353 286.461 75.7109 286.553 76.2134 286.557Z" fill="#ADD3FF"/>
<path d="M76.6389 283.722C77.7995 285.15 77.5898 287.239 77.5898 287.239C77.5898 287.239 75.499 287.015 74.3404 285.587C73.1818 284.16 73.3895 282.07 73.3895 282.07C73.3895 282.07 75.4782 282.294 76.6389 283.722Z" fill="#CEE5FF"/>
<path d="M332.039 276.967L332.249 276.961C332.272 276.961 332.811 276.949 333.528 277.098C334.192 277.237 335.139 277.548 335.874 278.241C336.607 278.934 336.972 279.862 337.149 280.518C337.34 281.223 337.359 281.763 337.359 281.785L337.365 281.995L337.155 282.001C337.132 282.001 336.592 282.014 335.876 281.864C335.212 281.725 334.265 281.414 333.53 280.721C332.797 280.028 332.431 279.1 332.255 278.445C332.064 277.739 332.045 277.2 332.045 277.177L332.039 276.967ZM336.927 281.58C336.866 281.02 336.613 279.511 335.59 278.544C334.562 277.575 333.042 277.409 332.479 277.382C332.539 277.943 332.793 279.451 333.816 280.418C334.844 281.387 336.364 281.553 336.927 281.58Z" fill="#ADD3FF"/>
<path d="M337.523 278.414C338.759 280.068 338.429 282.402 338.429 282.402C338.429 282.402 336.095 282.056 334.859 280.402C333.624 278.748 333.954 276.414 333.954 276.414C333.954 276.414 336.288 276.761 337.523 278.414Z" fill="#CEE5FF"/>
<path d="M274.172 295.817H177.641L179.397 289.462L182.827 277.053L184.904 269.54L187.966 258.463L193.869 237.109L196.932 226.031L218.461 148.156H233.352L241.242 176.696L254.881 226.031L257.944 237.109L263.847 258.463L266.909 269.54L272.416 289.462L274.172 295.817Z" fill="#66A8F6"/>
<path d="M274.172 295.815H177.641L179.397 289.459L182.827 277.051C250.096 273.079 241.244 176.695 241.244 176.695L272.416 289.459L274.172 295.815Z" fill="#4A89D4"/>
<path d="M293.924 295.812H157.891V308.737H293.924V295.812Z" fill="#4A89D4"/>
<path d="M274.172 295.817H177.641L179.397 289.461H272.416L274.172 295.817Z" fill="#1F5390"/>
<path d="M257.944 237.109C257.944 237.109 255.922 279.744 206.906 289.496L272.418 289.461L257.944 237.109Z" fill="#1F5390"/>
<path d="M257.95 237.109H193.875L196.938 226.031H254.887L257.95 237.109Z" fill="white"/>
<path d="M266.904 269.537H184.898L187.961 258.461H263.842L266.904 269.537Z" fill="white"/>
<path d="M262.458 295.812C262.458 295.812 244.427 309.416 177.641 308.737H293.924V295.812H262.458Z" fill="#1F5390"/>
<path d="M313.911 313.002H136.007C134.798 313.002 133.82 312.025 133.82 310.818V310.755C133.82 309.548 134.798 308.57 136.007 308.57H313.911C315.119 308.57 316.097 309.548 316.097 310.755V310.818C316.097 312.025 315.117 313.002 313.911 313.002Z" fill="#326DB2"/>
<path d="M139.386 313.002H110.577C109.369 313.002 108.391 312.025 108.391 310.818V310.755C108.391 309.548 109.369 308.57 110.577 308.57H139.386C140.594 308.57 141.572 309.548 141.572 310.755V310.818C141.572 312.025 140.594 313.002 139.386 313.002Z" fill="#326DB2"/>
<path d="M97.3668 313.002H67.1004C65.892 313.002 64.9141 312.025 64.9141 310.818V310.755C64.9141 309.548 65.892 308.57 67.1004 308.57H97.3688C98.5773 308.57 99.5552 309.548 99.5552 310.755V310.818C99.5531 312.025 98.5752 313.002 97.3668 313.002Z" fill="#326DB2"/>
<path d="M352.328 313.002H327.483C326.275 313.002 325.297 312.025 325.297 310.818V310.755C325.297 309.548 326.275 308.57 327.483 308.57H352.328C353.537 308.57 354.515 309.548 354.515 310.755V310.818C354.515 312.025 353.535 313.002 352.328 313.002Z" fill="#326DB2"/>
<path d="M384.804 313.002H365.905C364.697 313.002 363.719 312.025 363.719 310.818V310.755C363.719 309.548 364.697 308.57 365.905 308.57H384.804C386.012 308.57 386.99 309.548 386.99 310.755V310.818C386.99 312.025 386.012 313.002 384.804 313.002Z" fill="#326DB2"/>
</svg>
